<?xml version="1.0" standalone="no"?>
<!DOCTYPE svg PUBLIC "-//W3C//DTD SVG 1.1//EN" "http://www.w3.org/Graphics/SVG/1.1/DTD/svg11.dtd">
<svg  viewBox="9.3 13.64 34.4444 34.4444" width="62mm" height="62mm" version="1.1" 
xmlns="http://www.w3.org/2000/svg"
xmlns:xlink="http://www.w3.org/1999/xlink">
<!-- The red cross marker -->
<defs>
<!-- Show outline of canvas using 'rect' element with one central gray quartering -->
<desc>
 The rectangle for the outline of the canvas with the quartering
 </desc>
<g id="page frame with quartering" >
<rect x="0.6" y="0.6" width="60.8" height="60.8" fill="none"  stroke="black" stroke-width="0.075" /> 
<!-- The vertical marker line -->
<line x1="31"  y1="0.675"  x2="31"  y2="61.325" stroke="lightgray" opacity="0.5"  />  
<!-- The horizontal marker line -->
<line x1="0.675"  y1="31"  x2="61.325"  y2="31" stroke="lightgray" opacity="0.5" />  
</g>
</defs>
<!-- The upper molding cutter hole -->
 <defs>  <polyline points="-0.821467 -0.26263 -0.913116 -0.393519 -0.980644 -0.538333 -1.022 -0.692674 -1.03593 -0.851852 -1.022 -1.01103 -0.980644 -1.16537 -0.913116 -1.31019 -0.821467 -1.44107 -0.708481 -1.55406 -0.577593 -1.64571 -0.432778 -1.71324 -0.278437 -1.75459 -0.119259 -1.76852 0.0399182 -1.75459 0.194259 -1.71324 0.339074 -1.64571 0.469963 -1.55406 0.582948 -1.44107 0.674597 -1.31019 0.742126 -1.16537 0.783481 -1.01103 0.797407 -0.851852 0.783481 -0.692674 0.742126 -0.538333 0.674597 -0.393519 0.582948 -0.26263 0.469963 -0.149644  " style="stroke:red; stroke-width:0.3; fill:yellow; fill-opacity:0.6; stroke-opacity:0.6;   " id="upper hole of molding cutter" />  </defs>
 <!-- The lower molding cutter hole -->
 <defs>  <polyline points="-6.70816 5.87351 -6.83905 5.96516 -6.98386 6.03269 -7.1382 6.07405 -7.29738 6.08797 -7.45656 6.07405 -7.6109 6.03269 -7.75571 5.96516 -7.8866 5.87351 -7.99959 5.76053 -8.09124 5.62964 -8.15876 5.48482 -8.20012 5.33048 -8.21405 5.17131 -8.20012 5.01213 -8.15876 4.85779 -8.09124 4.71297 -7.99959 4.58208 -7.8866 4.4691 -7.75571 4.37745 -7.6109 4.30992 -7.45656 4.26857 -7.29738 4.25464 -7.1382 4.26857 -6.98386 4.30992 -6.83905 4.37745 -6.70816 4.4691 -6.59517 4.58208  " style="stroke:red; stroke-width:0.3; fill:yellow; fill-opacity:0.6; stroke-opacity:0.6;   " id="lower hole of molding cutter" />  </defs>
 <defs>
 <g id="MgO" style="stroke:black; stroke-width:0.1; fill:ivory;" >
<polyline points="0 0 5.91365 7.04761 5.9039 6.32627 -0.119259 -0.851852 0 0 "  /> 
<polyline points="-7.04761 5.91365 0 0 -0.119259 -0.851852 -7.29738 5.17131 -7.04761 5.91365 " /> 
<polyline points="-1.13396 12.9613 5.91365 7.04761 5.9039 6.32627 -1.27422 12.3494 -1.13396 12.9613 "  /> 
<polyline points="-7.04761 5.91365 -1.13396 12.9613 -1.27422 12.3494 -7.29738 5.17131 -7.04761 5.91365 " />  
<polyline points="-7.29738 5.17131 -1.27422 12.3494 5.9039 6.32627 -0.119259 -0.851852 -7.29738 5.17131 " /> 
 </g>
 </defs>
<use xlink:href="#MgO" transform="translate(31,31)  " /> 
<defs>
 <g id="upper left iron element" style="stroke:black; stroke-width:0.1; fill:lightsteelblue;"  >
<polyline points="-0.0134289 -0.408821 1.6233 1.54175 1.57601 1.10528 -0.0767866 -0.864448 -0.0134289 -0.408821 " id="back side upper left iron" />
  <polyline points="-2.12005 1.35884 -0.0134289 -0.408821 -0.0767866 -0.864448 -2.20409 0.920572 -2.12005 1.35884 "  id="left side upper left iron" /> 
<polyline points="-0.483323 3.30942 1.6233 1.54175 1.57601 1.10528 -0.551294 2.8903 -0.483323 3.30942 "  id="right side upper left iron" />
 <polyline points="-2.12005 1.35884 -0.483323 3.30942 -0.551294 2.8903 -2.20409 0.920572 -2.12005 1.35884 "  id="front side upper left iron" />
   <polyline points="-2.20409 0.920572 -0.551294 2.8903 1.57601 1.10528 -0.0767866 -0.864448 -2.20409 0.920572 "  id="top side upper left iron" />
</g>
 </defs>
<use xlink:href="#upper left iron element" transform="translate(31,31)  " /> 
<defs>
 <g id="upper middle iron element" style="stroke:black; stroke-width:0.1; fill:lightsteelblue;"  >
<polyline points="1.75424 1.6978 3.58737 3.88245 3.55937 3.46895 1.70823 1.26286 1.75424 1.6978 " id="back side upper left iron" />
  <polyline points="-0.352385 3.46547 1.75424 1.6978 1.70823 1.26286 -0.419071 3.04788 -0.352385 3.46547 "  id="left side upper left iron" /> 
<polyline points="1.48075 5.65011 3.58737 3.88245 3.55937 3.46895 1.43206 5.25397 1.48075 5.65011 "  id="right side upper left iron" />
 <polyline points="-0.352385 3.46547 1.48075 5.65011 1.43206 5.25397 -0.419071 3.04788 -0.352385 3.46547 "  id="front side upper left iron" />
   <polyline points="-0.419071 3.04788 1.43206 5.25397 3.55937 3.46895 1.70823 1.26286 -0.419071 3.04788 "  id="top side upper left iron" />
</g>
 </defs>
<use xlink:href="#upper middle iron element" transform="translate(31,31)  " /> 
<defs>
 <g id="upper right iron element" style="stroke:black; stroke-width:0.1; fill:lightsteelblue;"  >
<polyline points="3.71831 4.03849 5.55145 6.22314 5.54272 5.83262 3.69159 3.62653 3.71831 4.03849 " id="back side upper left iron" />
  <polyline points="1.61169 5.80616 3.71831 4.03849 3.69159 3.62653 1.56429 5.41155 1.61169 5.80616 "  id="left side upper left iron" /> 
<polyline points="3.44482 7.9908 5.55145 6.22314 5.54272 5.83262 3.41542 7.61764 3.44482 7.9908 "  id="right side upper left iron" />
 <polyline points="1.61169 5.80616 3.44482 7.9908 3.41542 7.61764 1.56429 5.41155 1.61169 5.80616 "  id="front side upper left iron" />
   <polyline points="1.56429 5.41155 3.41542 7.61764 5.54272 5.83262 3.69159 3.62653 1.56429 5.41155 "  id="top side upper left iron" />
</g>
 </defs>
<use xlink:href="#upper right iron element" transform="translate(31,31)  " /> 
<defs>
 <g id="middle left iron element" style="stroke:black; stroke-width:0.1; fill:lightsteelblue;"  >
<polyline points="-2.2761 1.48978 -0.63937 3.44036 -0.789994 2.53483 -2.46155 0.542757 -2.2761 1.48978 " id="back side upper left iron" />
  <polyline points="-4.46074 3.32292 -2.2761 1.48978 -2.46155 0.542757 -4.69267 2.41489 -4.46074 3.32292 "  id="left side upper left iron" /> 
<polyline points="-2.82401 5.27349 -0.63937 3.44036 -0.789994 2.53483 -3.02112 4.40697 -2.82401 5.27349 "  id="right side upper left iron" />
 <polyline points="-4.46074 3.32292 -2.82401 5.27349 -3.02112 4.40697 -4.69267 2.41489 -4.46074 3.32292 "  id="front side upper left iron" />
   <polyline points="-4.69267 2.41489 -3.02112 4.40697 -0.789994 2.53483 -2.46155 0.542757 -4.69267 2.41489 "  id="top side upper left iron" />
</g>
 </defs>
<use xlink:href="#middle left iron element" transform="translate(31,31)  " /> 
<defs>
 <g id="middle middle iron element" style="stroke:black; stroke-width:0.1; fill:lightsteelblue;"  >
<polyline points="-0.508431 3.5964 1.3247 5.78105 1.21587 4.92533 -0.65627 2.6942 -0.508431 3.5964 " id="back side upper left iron" />
  <polyline points="-2.69308 5.42954 -0.508431 3.5964 -0.65627 2.6942 -2.8874 4.56634 -2.69308 5.42954 "  id="left side upper left iron" /> 
<polyline points="-0.859942 7.61419 1.3247 5.78105 1.21587 4.92533 -1.01526 6.79747 -0.859942 7.61419 "  id="right side upper left iron" />
 <polyline points="-2.69308 5.42954 -0.859942 7.61419 -1.01526 6.79747 -2.8874 4.56634 -2.69308 5.42954 "  id="front side upper left iron" />
   <polyline points="-2.8874 4.56634 -1.01526 6.79747 1.21587 4.92533 -0.65627 2.6942 -2.8874 4.56634 "  id="top side upper left iron" />
</g>
 </defs>
<use xlink:href="#middle middle iron element" transform="translate(31,31)  " /> 
<defs>
 <g id="middle right iron element" style="stroke:black; stroke-width:0.1; fill:lightsteelblue;"  >
<polyline points="1.45564 5.9371 3.28878 8.12174 3.22173 7.31582 1.34959 5.08469 1.45564 5.9371 " id="back side upper left iron" />
  <polyline points="-0.729003 7.77023 1.45564 5.9371 1.34959 5.08469 -0.881535 6.95683 -0.729003 7.77023 "  id="left side upper left iron" /> 
<polyline points="1.10413 9.95488 3.28878 8.12174 3.22173 7.31582 0.990603 9.18796 1.10413 9.95488 "  id="right side upper left iron" />
 <polyline points="-0.729003 7.77023 1.10413 9.95488 0.990603 9.18796 -0.881535 6.95683 -0.729003 7.77023 "  id="front side upper left iron" />
   <polyline points="-0.881535 6.95683 0.990603 9.18796 3.22173 7.31582 1.34959 5.08469 -0.881535 6.95683 "  id="top side upper left iron" />
</g>
 </defs>
<use xlink:href="#middle right iron element" transform="translate(31,31)  " /> 
<defs>
 <g id="lower left iron element" style="stroke:black; stroke-width:0.1; fill:lightsteelblue;"  >
<polyline points="-4.61679 3.45386 -2.98006 5.40443 -3.38963 3.63941 -5.09752 1.60402 -4.61679 3.45386 " id="back side upper left iron" />
  <polyline points="-6.80143 5.28699 -4.61679 3.45386 -5.09752 1.60402 -7.37715 3.51686 -6.80143 5.28699 "  id="left side upper left iron" /> 
<polyline points="-5.16471 7.23757 -2.98006 5.40443 -3.38963 3.63941 -5.66926 5.55224 -5.16471 7.23757 "  id="right side upper left iron" />
 <polyline points="-6.80143 5.28699 -5.16471 7.23757 -5.66926 5.55224 -7.37715 3.51686 -6.80143 5.28699 "  id="front side upper left iron" />
   <polyline points="-7.37715 3.51686 -5.66926 5.55224 -3.38963 3.63941 -5.09752 1.60402 -7.37715 3.51686 "  id="top side upper left iron" />
</g>
 </defs>
<use xlink:href="#lower left iron element" transform="translate(31,31)  " /> 
<defs>
 <g id="lower middle iron element" style="stroke:black; stroke-width:0.1; fill:lightsteelblue;"  >
<polyline points="-2.84912 5.56048 -1.01599 7.74512 -1.34016 6.08187 -3.253 3.80224 -2.84912 5.56048 " id="back side upper left iron" />
  <polyline points="-5.03377 7.39361 -2.84912 5.56048 -3.253 3.80224 -5.53263 5.71507 -5.03377 7.39361 "  id="left side upper left iron" /> 
<polyline points="-3.20063 9.57826 -1.01599 7.74512 -1.34016 6.08187 -3.61979 7.9947 -3.20063 9.57826 "  id="right side upper left iron" />
 <polyline points="-5.03377 7.39361 -3.20063 9.57826 -3.61979 7.9947 -5.53263 5.71507 -5.03377 7.39361 "  id="front side upper left iron" />
   <polyline points="-5.53263 5.71507 -3.61979 7.9947 -1.34016 6.08187 -3.253 3.80224 -5.53263 5.71507 "  id="top side upper left iron" />
</g>
 </defs>
<use xlink:href="#lower middle iron element" transform="translate(31,31)  " /> 
<defs>
 <g id="lower right iron element" style="stroke:black; stroke-width:0.1; fill:lightsteelblue;"  >
<polyline points="-0.885049 7.90117 0.948086 10.0858 0.709307 8.52433 -1.20353 6.2447 -0.885049 7.90117 " id="back side upper left iron" />
  <polyline points="-3.06969 9.7343 -0.885049 7.90117 -1.20353 6.2447 -3.48316 8.15754 -3.06969 9.7343 "  id="left side upper left iron" /> 
<polyline points="-1.23656 11.9189 0.948086 10.0858 0.709307 8.52433 -1.57032 10.4372 -1.23656 11.9189 "  id="right side upper left iron" />
 <polyline points="-3.06969 9.7343 -1.23656 11.9189 -1.57032 10.4372 -3.48316 8.15754 -3.06969 9.7343 "  id="front side upper left iron" />
   <polyline points="-3.48316 8.15754 -1.57032 10.4372 0.709307 8.52433 -1.20353 6.2447 -3.48316 8.15754 "  id="top side upper left iron" />
</g>
 </defs>
<use xlink:href="#lower right iron element" transform="translate(31,31)  " /> 
<defs>
 <g id="upper left gold element" style="stroke:black; stroke-width:0.1; fill:gold;"  >
<polyline points="-0.0767866 -0.864448 1.57601 1.10528 1.36236 -0.866672 -0.363029 -2.92292 -0.0767866 -0.864448 " /> 
<polyline points="-2.20409 0.920572 -0.0767866 -0.864448 -0.363029 -2.92292 -2.58377 -1.05949 -2.20409 0.920572 " /> 
 <polyline points="-0.551294 2.8903 1.57601 1.10528 1.36236 -0.866672 -0.858379 0.996754 -0.551294 2.8903 " /> 
<polyline points="-2.20409 0.920572 -0.551294 2.8903 -0.858379 0.996754 -2.58377 -1.05949 -2.20409 0.920572 " /> 
<polyline points="-2.58377 -1.05949 -0.858379 0.996754 1.36236 -0.866672 -0.363029 -2.92292 -2.58377 -1.05949 "  /> </g> </defs>
<use xlink:href="#upper left gold element" transform="translate(31,31)  " /> 
<defs>
 <g id="upper middle gold element" style="stroke:black; stroke-width:0.1; fill:gold;"  >
<polyline points="1.70823 1.26286 3.55937 3.46895 3.53902 3.16859 1.67482 0.946916 1.70823 1.26286 " /> 
<polyline points="-0.419071 3.04788 1.70823 1.26286 1.67482 0.946916 -0.46751 2.74454 -0.419071 3.04788 " /> 
 <polyline points="1.43206 5.25397 3.55937 3.46895 3.53902 3.16859 1.39669 4.96622 1.43206 5.25397 " /> 
<polyline points="-0.419071 3.04788 1.43206 5.25397 1.39669 4.96622 -0.46751 2.74454 -0.419071 3.04788 " /> 
<polyline points="-0.46751 2.74454 1.39669 4.96622 3.53902 3.16859 1.67482 0.946916 -0.46751 2.74454 "  /> </g> </defs>
<use xlink:href="#upper middle gold element" transform="translate(31,31)  " /> 
<defs>
 <g id="upper right gold element" style="stroke:black; stroke-width:0.1; fill:gold;"  >
<polyline points="3.69159 3.62653 5.54272 5.83262 5.52344 4.96943 3.63253 2.71592 3.69159 3.62653 " /> 
<polyline points="1.56429 5.41155 3.69159 3.62653 3.63253 2.71592 1.45951 4.5393 1.56429 5.41155 " /> 
 <polyline points="3.41542 7.61764 5.54272 5.83262 5.52344 4.96943 3.35042 6.79281 3.41542 7.61764 " /> 
<polyline points="1.56429 5.41155 3.41542 7.61764 3.35042 6.79281 1.45951 4.5393 1.56429 5.41155 " /> 
<polyline points="1.45951 4.5393 3.35042 6.79281 5.52344 4.96943 3.63253 2.71592 1.45951 4.5393 "  /> </g> </defs>
<use xlink:href="#upper right gold element" transform="translate(31,31)  " /> 
<defs>
 <g id="middle left gold element" style="stroke:black; stroke-width:0.1; fill:gold;"  >
<polyline points="-2.46155 0.542757 -0.789994 2.53483 -1.11133 0.603049 -2.85717 -1.47757 -2.46155 0.542757 " /> 
<polyline points="-4.69267 2.41489 -2.46155 0.542757 -2.85717 -1.47757 -5.18746 0.477779 -4.69267 2.41489 " /> 
 <polyline points="-3.02112 4.40697 -0.789994 2.53483 -1.11133 0.603049 -3.44162 2.55839 -3.02112 4.40697 " /> 
<polyline points="-4.69267 2.41489 -3.02112 4.40697 -3.44162 2.55839 -5.18746 0.477779 -4.69267 2.41489 " /> 
<polyline points="-5.18746 0.477779 -3.44162 2.55839 -1.11133 0.603049 -2.85717 -1.47757 -5.18746 0.477779 "  /> </g> </defs>
<use xlink:href="#middle left gold element" transform="translate(31,31)  " /> 
<defs>
 <g id="middle middle gold element" style="stroke:black; stroke-width:0.1; fill:gold;"  >
<polyline points="-0.65627 2.6942 1.21587 4.92533 1.17855 4.63194 -0.706958 2.38487 -0.65627 2.6942 " /> 
<polyline points="-2.8874 4.56634 -0.65627 2.6942 -0.706958 2.38487 -2.95402 4.27038 -2.8874 4.56634 " /> 
 <polyline points="-1.01526 6.79747 1.21587 4.92533 1.17855 4.63194 -1.06851 6.51745 -1.01526 6.79747 " /> 
<polyline points="-2.8874 4.56634 -1.01526 6.79747 -1.06851 6.51745 -2.95402 4.27038 -2.8874 4.56634 " /> 
<polyline points="-2.95402 4.27038 -1.06851 6.51745 1.17855 4.63194 -0.706958 2.38487 -2.95402 4.27038 "  /> </g> </defs>
<use xlink:href="#middle middle gold element" transform="translate(31,31)  " /> 
<defs>
 <g id="middle right gold element" style="stroke:black; stroke-width:0.1; fill:gold;"  >
<polyline points="1.34959 5.08469 3.22173 7.31582 3.15177 6.47486 1.23893 4.19523 1.34959 5.08469 " /> 
<polyline points="-0.881535 6.95683 1.34959 5.08469 1.23893 4.19523 -1.0407 6.10807 -0.881535 6.95683 " /> 
 <polyline points="0.990603 9.18796 3.22173 7.31582 3.15177 6.47486 0.872137 8.3877 0.990603 9.18796 " /> 
<polyline points="-0.881535 6.95683 0.990603 9.18796 0.872137 8.3877 -1.0407 6.10807 -0.881535 6.95683 " /> 
<polyline points="-1.0407 6.10807 0.872137 8.3877 3.15177 6.47486 1.23893 4.19523 -1.0407 6.10807 "  /> </g> </defs>
<use xlink:href="#middle right gold element" transform="translate(31,31)  " /> 
<defs>
 <g id="lower left gold element" style="stroke:black; stroke-width:0.1; fill:gold;"  >
<polyline points="-5.09752 1.60402 -3.38963 3.63941 -3.83643 1.71393 -5.62195 -0.413975 -5.09752 1.60402 " /> 
<polyline points="-7.37715 3.51686 -5.09752 1.60402 -5.62195 -0.413975 -8.0052 1.58581 -7.37715 3.51686 " /> 
 <polyline points="-5.66926 5.55224 -3.38963 3.63941 -3.83643 1.71393 -6.21968 3.71371 -5.66926 5.55224 " /> 
<polyline points="-7.37715 3.51686 -5.66926 5.55224 -6.21968 3.71371 -8.0052 1.58581 -7.37715 3.51686 " /> 
<polyline points="-8.0052 1.58581 -6.21968 3.71371 -3.83643 1.71393 -5.62195 -0.413975 -8.0052 1.58581 "  /> </g> </defs>
<use xlink:href="#lower left gold element" transform="translate(31,31)  " /> 
<defs>
 <g id="lower middle gold element" style="stroke:black; stroke-width:0.1; fill:gold;"  >
<polyline points="-3.253 3.80224 -1.34016 6.08187 -1.39695 5.79049 -3.32375 3.49423 -3.253 3.80224 " /> 
<polyline points="-5.53263 5.71507 -3.253 3.80224 -3.32375 3.49423 -5.62002 5.42102 -5.53263 5.71507 " /> 
 <polyline points="-3.61979 7.9947 -1.34016 6.08187 -1.39695 5.79049 -3.69322 7.71729 -3.61979 7.9947 " /> 
<polyline points="-5.53263 5.71507 -3.61979 7.9947 -3.69322 7.71729 -5.62002 5.42102 -5.53263 5.71507 " /> 
<polyline points="-5.62002 5.42102 -3.69322 7.71729 -1.39695 5.79049 -3.32375 3.49423 -5.62002 5.42102 "  /> </g> </defs>
<use xlink:href="#lower middle gold element" transform="translate(31,31)  " /> 
<defs>
 <g id="lower right gold element" style="stroke:black; stroke-width:0.1; fill:gold;"  >
<polyline points="-1.20353 6.2447 0.709307 8.52433 0.581958 7.69154 -1.37339 5.36125 -1.20353 6.2447 " /> 
<polyline points="-3.48316 8.15754 -1.20353 6.2447 -1.37339 5.36125 -3.70367 7.31659 -3.48316 8.15754 " /> 
 <polyline points="-1.57032 10.4372 0.709307 8.52433 0.581958 7.69154 -1.74833 9.64688 -1.57032 10.4372 " /> 
<polyline points="-3.48316 8.15754 -1.57032 10.4372 -1.74833 9.64688 -3.70367 7.31659 -3.48316 8.15754 " /> 
<polyline points="-3.70367 7.31659 -1.74833 9.64688 0.581958 7.69154 -1.37339 5.36125 -3.70367 7.31659 "  /> </g> </defs>
<use xlink:href="#lower right gold element" transform="translate(31,31)  " /> 
</svg>
