<?xml version="1.0" standalone="no"?>
<!DOCTYPE svg PUBLIC "-//W3C//DTD SVG 1.1//EN" "http://www.w3.org/Graphics/SVG/1.1/DTD/svg11.dtd">
<svg  viewBox="9.3 13.64 34.4444 34.4444" width="62mm" height="62mm" version="1.1" 
xmlns="http://www.w3.org/2000/svg"
xmlns:xlink="http://www.w3.org/1999/xlink">
<!-- The red cross marker -->
<defs>
<!-- Show outline of canvas using 'rect' element with one central gray quartering -->
<desc>
 The rectangle for the outline of the canvas with the quartering
 </desc>
<g id="page frame with quartering" >
<rect x="0.6" y="0.6" width="60.8" height="60.8" fill="none"  stroke="black" stroke-width="0.075" /> 
<!-- The vertical marker line -->
<line x1="31"  y1="0.675"  x2="31"  y2="61.325" stroke="lightgray" opacity="0.5"  />  
<!-- The horizontal marker line -->
<line x1="0.675"  y1="31"  x2="61.325"  y2="31" stroke="lightgray" opacity="0.5" />  
</g>
</defs>
<!-- The upper molding cutter hole -->
 <defs>  <polyline points="-0.645038 -0.100962 -0.76744 -0.203671 -0.870149 -0.326073 -0.950041 -0.464452 -1.00469 -0.614601 -1.03244 -0.771959 -1.03244 -0.931745 -1.00469 -1.0891 -0.950041 -1.23925 -0.870149 -1.37763 -0.76744 -1.50003 -0.645038 -1.60274 -0.506659 -1.68263 -0.35651 -1.73728 -0.199152 -1.76503 -0.0393665 -1.76503 0.117992 -1.73728 0.268141 -1.68263 0.406519 -1.60274 0.528922 -1.50003 0.63163 -1.37763 0.711523 -1.23925 0.766173 -1.0891 0.793919 -0.931745 0.793919 -0.771959 0.766173 -0.614601 0.711523 -0.464452 0.63163 -0.326073  " style="stroke:red; stroke-width:0.3; fill:yellow; fill-opacity:0.6; stroke-opacity:0.6;   " id="upper hole of molding cutter" />  </defs>
 <!-- The lower molding cutter hole -->
 <defs>  <polyline points="-4.74299 7.34968 -4.8457 7.47209 -4.9681 7.5748 -5.10648 7.65469 -5.25663 7.70934 -5.41399 7.73708 -5.57378 7.73708 -5.73113 7.70934 -5.88128 7.65469 -6.01966 7.5748 -6.14206 7.47209 -6.24477 7.34968 -6.32467 7.21131 -6.37931 7.06116 -6.40706 6.9038 -6.40706 6.74401 -6.37931 6.58666 -6.32467 6.43651 -6.24477 6.29813 -6.14206 6.17572 -6.01966 6.07302 -5.88128 5.99312 -5.73113 5.93847 -5.57378 5.91073 -5.41399 5.91073 -5.25663 5.93847 -5.10648 5.99312 -4.9681 6.07302  " style="stroke:red; stroke-width:0.3; fill:yellow; fill-opacity:0.6; stroke-opacity:0.6;   " id="lower hole of molding cutter" />  </defs>
 <defs>
 <g id="MgO" style="stroke:black; stroke-width:0.1; fill:ivory;" >
<polyline points="0 0 7.5362 5.2769 7.5565 4.52277 -0.119259 -0.851852 0 0 "  /> 
<polyline points="-5.2769 7.5362 0 0 -0.119259 -0.851852 -5.49388 6.82391 -5.2769 7.5362 " /> 
<polyline points="2.2593 12.8131 7.5362 5.2769 7.5565 4.52277 2.18188 12.1985 2.2593 12.8131 "  /> 
<polyline points="-5.2769 7.5362 2.2593 12.8131 2.18188 12.1985 -5.49388 6.82391 -5.2769 7.5362 " />  
<polyline points="-5.49388 6.82391 2.18188 12.1985 7.5565 4.52277 -0.119259 -0.851852 -5.49388 6.82391 " /> 
 </g>
 </defs>
<use xlink:href="#MgO" transform="translate(31,31)  " /> 
<defs>
 <g id="upper left iron element" style="stroke:black; stroke-width:0.1; fill:lightsteelblue;"  >
<polyline points="0.0976297 -0.451308 2.18343 1.00919 2.14164 0.567482 0.0353624 -0.907352 0.0976297 -0.451308 " id="back side upper left iron" />
  <polyline points="-1.47971 1.80136 0.0976297 -0.451308 0.0353624 -0.907352 -1.55746 1.36743 -1.47971 1.80136 "  id="left side upper left iron" /> 
<polyline points="0.606098 3.26186 2.18343 1.00919 2.14164 0.567482 0.548823 2.84227 0.606098 3.26186 "  id="right side upper left iron" />
 <polyline points="-1.47971 1.80136 0.606098 3.26186 0.548823 2.84227 -1.55746 1.36743 -1.47971 1.80136 "  id="front side upper left iron" />
   <polyline points="-1.55746 1.36743 0.548823 2.84227 2.14164 0.567482 0.0353624 -0.907352 -1.55746 1.36743 "  id="top side upper left iron" />
</g>
 </defs>
<use xlink:href="#upper left iron element" transform="translate(31,31)  " /> 
<defs>
 <g id="upper middle iron element" style="stroke:black; stroke-width:0.1; fill:lightsteelblue;"  >
<polyline points="2.3503 1.12603 4.6864 2.76178 4.66918 2.33728 2.31015 0.685469 2.3503 1.12603 " id="back side upper left iron" />
  <polyline points="0.772963 3.3787 2.3503 1.12603 2.31015 0.685469 0.717326 2.96025 0.772963 3.3787 "  id="left side upper left iron" /> 
<polyline points="3.10906 5.01445 4.6864 2.76178 4.66918 2.33728 3.07636 4.61207 3.10906 5.01445 "  id="right side upper left iron" />
 <polyline points="0.772963 3.3787 3.10906 5.01445 3.07636 4.61207 0.717326 2.96025 0.772963 3.3787 "  id="front side upper left iron" />
   <polyline points="0.717326 2.96025 3.07636 4.61207 4.66918 2.33728 2.31015 0.685469 0.717326 2.96025 "  id="top side upper left iron" />
</g>
 </defs>
<use xlink:href="#upper middle iron element" transform="translate(31,31)  " /> 
<defs>
 <g id="upper right iron element" style="stroke:black; stroke-width:0.1; fill:lightsteelblue;"  >
<polyline points="4.85326 2.87862 7.18936 4.51438 7.19672 4.10708 4.83768 2.45527 4.85326 2.87862 " id="back side upper left iron" />
  <polyline points="3.27593 5.13129 4.85326 2.87862 4.83768 2.45527 3.24486 4.73005 3.27593 5.13129 "  id="left side upper left iron" /> 
<polyline points="5.61203 6.76704 7.18936 4.51438 7.19672 4.10708 5.6039 6.38187 5.61203 6.76704 "  id="right side upper left iron" />
 <polyline points="3.27593 5.13129 5.61203 6.76704 5.6039 6.38187 3.24486 4.73005 3.27593 5.13129 "  id="front side upper left iron" />
   <polyline points="3.24486 4.73005 5.6039 6.38187 7.19672 4.10708 4.83768 2.45527 3.24486 4.73005 "  id="top side upper left iron" />
</g>
 </defs>
<use xlink:href="#upper right iron element" transform="translate(31,31)  " /> 
<defs>
 <g id="middle left iron element" style="stroke:black; stroke-width:0.1; fill:lightsteelblue;"  >
<polyline points="-1.59655 1.96822 0.489259 3.42872 0.362647 2.52295 -1.76754 1.03138 -1.59655 1.96822 " id="back side upper left iron" />
  <polyline points="-3.2323 4.30432 -1.59655 1.96822 -1.76754 1.03138 -3.43809 3.41718 -3.2323 4.30432 "  id="left side upper left iron" /> 
<polyline points="-1.1465 5.76482 0.489259 3.42872 0.362647 2.52295 -1.30791 4.90875 -1.1465 5.76482 "  id="right side upper left iron" />
 <polyline points="-3.2323 4.30432 -1.1465 5.76482 -1.30791 4.90875 -3.43809 3.41718 -3.2323 4.30432 "  id="front side upper left iron" />
   <polyline points="-3.43809 3.41718 -1.30791 4.90875 0.362647 2.52295 -1.76754 1.03138 -3.43809 3.41718 "  id="top side upper left iron" />
</g>
 </defs>
<use xlink:href="#middle left iron element" transform="translate(31,31)  " /> 
<defs>
 <g id="middle middle iron element" style="stroke:black; stroke-width:0.1; fill:lightsteelblue;"  >
<polyline points="0.656123 3.54556 2.99222 5.18131 2.91887 4.31283 0.533062 2.64227 0.656123 3.54556 " id="back side upper left iron" />
  <polyline points="-0.979632 5.88166 0.656123 3.54556 0.533062 2.64227 -1.1375 5.02808 -0.979632 5.88166 "  id="left side upper left iron" /> 
<polyline points="1.35647 7.51741 2.99222 5.18131 2.91887 4.31283 1.24831 6.69864 1.35647 7.51741 "  id="right side upper left iron" />
 <polyline points="-0.979632 5.88166 1.35647 7.51741 1.24831 6.69864 -1.1375 5.02808 -0.979632 5.88166 "  id="front side upper left iron" />
   <polyline points="-1.1375 5.02808 1.24831 6.69864 2.91887 4.31283 0.533062 2.64227 -1.1375 5.02808 "  id="top side upper left iron" />
</g>
 </defs>
<use xlink:href="#middle middle iron element" transform="translate(31,31)  " /> 
<defs>
 <g id="middle right iron element" style="stroke:black; stroke-width:0.1; fill:lightsteelblue;"  >
<polyline points="3.15909 5.29815 5.49519 6.93391 5.47509 6.10272 3.08928 4.43216 3.15909 5.29815 " id="back side upper left iron" />
  <polyline points="1.52333 7.63425 3.15909 5.29815 3.08928 4.43216 1.41872 6.81796 1.52333 7.63425 "  id="left side upper left iron" /> 
<polyline points="3.85943 9.27001 5.49519 6.93391 5.47509 6.10272 3.80453 8.48852 3.85943 9.27001 "  id="right side upper left iron" />
 <polyline points="1.52333 7.63425 3.85943 9.27001 3.80453 8.48852 1.41872 6.81796 1.52333 7.63425 "  id="front side upper left iron" />
   <polyline points="1.41872 6.81796 3.80453 8.48852 5.47509 6.10272 3.08928 4.43216 1.41872 6.81796 "  id="top side upper left iron" />
</g>
 </defs>
<use xlink:href="#middle right iron element" transform="translate(31,31)  " /> 
<defs>
 <g id="lower left iron element" style="stroke:black; stroke-width:0.1; fill:lightsteelblue;"  >
<polyline points="-3.34914 4.47119 -1.26334 5.93168 -1.59826 4.18958 -3.77475 2.66559 -3.34914 4.47119 " id="back side upper left iron" />
  <polyline points="-4.98489 6.80729 -3.34914 4.47119 -3.77475 2.66559 -5.48163 5.10326 -4.98489 6.80729 "  id="left side upper left iron" /> 
<polyline points="-2.89909 8.26778 -1.26334 5.93168 -1.59826 4.18958 -3.30514 6.62725 -2.89909 8.26778 "  id="right side upper left iron" />
 <polyline points="-4.98489 6.80729 -2.89909 8.26778 -3.30514 6.62725 -5.48163 5.10326 -4.98489 6.80729 "  id="front side upper left iron" />
   <polyline points="-5.48163 5.10326 -3.30514 6.62725 -1.59826 4.18958 -3.77475 2.66559 -5.48163 5.10326 "  id="top side upper left iron" />
</g>
 </defs>
<use xlink:href="#lower left iron element" transform="translate(31,31)  " /> 
<defs>
 <g id="lower middle iron element" style="stroke:black; stroke-width:0.1; fill:lightsteelblue;"  >
<polyline points="-1.09647 6.04852 1.23963 7.68428 1.01353 6.01838 -1.42414 4.3115 -1.09647 6.04852 " id="back side upper left iron" />
  <polyline points="-2.73223 8.38462 -1.09647 6.04852 -1.42414 4.3115 -3.13102 6.74917 -2.73223 8.38462 "  id="left side upper left iron" /> 
<polyline points="-0.396126 10.0204 1.23963 7.68428 1.01353 6.01838 -0.693349 8.45605 -0.396126 10.0204 "  id="right side upper left iron" />
 <polyline points="-2.73223 8.38462 -0.396126 10.0204 -0.693349 8.45605 -3.13102 6.74917 -2.73223 8.38462 "  id="front side upper left iron" />
   <polyline points="-3.13102 6.74917 -0.693349 8.45605 1.01353 6.01838 -1.42414 4.3115 -3.13102 6.74917 "  id="top side upper left iron" />
</g>
 </defs>
<use xlink:href="#lower middle iron element" transform="translate(31,31)  " /> 
<defs>
 <g id="lower right iron element" style="stroke:black; stroke-width:0.1; fill:lightsteelblue;"  >
<polyline points="1.40649 7.80112 3.74259 9.43687 3.62531 7.84717 1.18764 6.1403 1.40649 7.80112 " id="back side upper left iron" />
  <polyline points="-0.229262 10.1372 1.40649 7.80112 1.18764 6.1403 -0.51923 8.57797 -0.229262 10.1372 "  id="left side upper left iron" /> 
<polyline points="2.10684 11.773 3.74259 9.43687 3.62531 7.84717 1.91844 10.2848 2.10684 11.773 "  id="right side upper left iron" />
 <polyline points="-0.229262 10.1372 2.10684 11.773 1.91844 10.2848 -0.51923 8.57797 -0.229262 10.1372 "  id="front side upper left iron" />
   <polyline points="-0.51923 8.57797 1.91844 10.2848 3.62531 7.84717 1.18764 6.1403 -0.51923 8.57797 "  id="top side upper left iron" />
</g>
 </defs>
<use xlink:href="#lower right iron element" transform="translate(31,31)  " /> 
<defs>
 <g id="upper left gold element" style="stroke:black; stroke-width:0.1; fill:gold;"  >
<polyline points="0.0353624 -0.907352 2.14164 0.567482 1.95284 -1.42809 -0.245954 -2.9677 0.0353624 -0.907352 " /> 
<polyline points="-1.55746 1.36743 0.0353624 -0.907352 -0.245954 -2.9677 -1.90874 -0.593003 -1.55746 1.36743 " /> 
 <polyline points="0.548823 2.84227 2.14164 0.567482 1.95284 -1.42809 0.29006 0.946612 0.548823 2.84227 " /> 
<polyline points="-1.55746 1.36743 0.548823 2.84227 0.29006 0.946612 -1.90874 -0.593003 -1.55746 1.36743 " /> 
<polyline points="-1.90874 -0.593003 0.29006 0.946612 1.95284 -1.42809 -0.245954 -2.9677 -1.90874 -0.593003 "  /> </g> </defs>
<use xlink:href="#upper left gold element" transform="translate(31,31)  " /> 
<defs>
 <g id="upper middle gold element" style="stroke:black; stroke-width:0.1; fill:gold;"  >
<polyline points="2.31015 0.685469 4.66918 2.33728 4.65668 2.02893 2.28098 0.365451 2.31015 0.685469 " /> 
<polyline points="0.717326 2.96025 2.31015 0.685469 2.28098 0.365451 0.676911 2.6563 0.717326 2.96025 " /> 
 <polyline points="3.07636 4.61207 4.66918 2.33728 4.65668 2.02893 3.05261 4.31978 3.07636 4.61207 " /> 
<polyline points="0.717326 2.96025 3.07636 4.61207 3.05261 4.31978 0.676911 2.6563 0.717326 2.96025 " /> 
<polyline points="0.676911 2.6563 3.05261 4.31978 4.65668 2.02893 2.28098 0.365451 0.676911 2.6563 "  /> </g> </defs>
<use xlink:href="#upper middle gold element" transform="translate(31,31)  " /> 
<defs>
 <g id="upper right gold element" style="stroke:black; stroke-width:0.1; fill:gold;"  >
<polyline points="4.83768 2.45527 7.19672 4.10708 7.21298 3.20681 4.80325 1.5195 4.83768 2.45527 " /> 
<polyline points="3.24486 4.73005 4.83768 2.45527 4.80325 1.5195 3.1762 3.84316 3.24486 4.73005 " /> 
 <polyline points="5.6039 6.38187 7.19672 4.10708 7.21298 3.20681 5.58593 5.53048 5.6039 6.38187 " /> 
<polyline points="3.24486 4.73005 5.6039 6.38187 5.58593 5.53048 3.1762 3.84316 3.24486 4.73005 " /> 
<polyline points="3.1762 3.84316 5.58593 5.53048 7.21298 3.20681 4.80325 1.5195 3.1762 3.84316 "  /> </g> </defs>
<use xlink:href="#upper right gold element" transform="translate(31,31)  " /> 
<defs>
 <g id="middle left gold element" style="stroke:black; stroke-width:0.1; fill:gold;"  >
<polyline points="-1.76754 1.03138 0.362647 2.52295 0.0925426 0.590634 -2.13231 -0.967228 -1.76754 1.03138 " /> 
<polyline points="-3.43809 3.41718 -1.76754 1.03138 -2.13231 -0.967228 -3.87712 1.52461 -3.43809 3.41718 " /> 
 <polyline points="-1.30791 4.90875 0.362647 2.52295 0.0925426 0.590634 -1.65226 3.08247 -1.30791 4.90875 " /> 
<polyline points="-3.43809 3.41718 -1.30791 4.90875 -1.65226 3.08247 -3.87712 1.52461 -3.43809 3.41718 " /> 
<polyline points="-3.87712 1.52461 -1.65226 3.08247 0.0925426 0.590634 -2.13231 -0.967228 -3.87712 1.52461 "  /> </g> </defs>
<use xlink:href="#middle left gold element" transform="translate(31,31)  " /> 
<defs>
 <g id="middle middle gold element" style="stroke:black; stroke-width:0.1; fill:gold;"  >
<polyline points="0.533062 2.64227 2.91887 4.31283 2.89372 4.01507 0.490869 2.33258 0.533062 2.64227 " /> 
<polyline points="-1.1375 5.02808 0.533062 2.64227 0.490869 2.33258 -1.19162 4.73542 -1.1375 5.02808 " /> 
 <polyline points="1.24831 6.69864 2.91887 4.31283 2.89372 4.01507 1.21122 6.41791 1.24831 6.69864 " /> 
<polyline points="-1.1375 5.02808 1.24831 6.69864 1.21122 6.41791 -1.19162 4.73542 -1.1375 5.02808 " /> 
<polyline points="-1.19162 4.73542 1.21122 6.41791 2.89372 4.01507 0.490869 2.33258 -1.19162 4.73542 "  /> </g> </defs>
<use xlink:href="#middle middle gold element" transform="translate(31,31)  " /> 
<defs>
 <g id="middle right gold element" style="stroke:black; stroke-width:0.1; fill:gold;"  >
<polyline points="3.08928 4.43216 5.47509 6.10272 5.45411 5.23538 3.01644 3.52851 3.08928 4.43216 " /> 
<polyline points="1.41872 6.81796 3.08928 4.43216 3.01644 3.52851 1.30956 5.96618 1.41872 6.81796 " /> 
 <polyline points="3.80453 8.48852 5.47509 6.10272 5.45411 5.23538 3.74723 7.67305 3.80453 8.48852 " /> 
<polyline points="1.41872 6.81796 3.80453 8.48852 3.74723 7.67305 1.30956 5.96618 1.41872 6.81796 " /> 
<polyline points="1.30956 5.96618 3.74723 7.67305 5.45411 5.23538 3.01644 3.52851 1.30956 5.96618 "  /> </g> </defs>
<use xlink:href="#middle right gold element" transform="translate(31,31)  " /> 
<defs>
 <g id="lower left gold element" style="stroke:black; stroke-width:0.1; fill:gold;"  >
<polyline points="-3.77475 2.66559 -1.59826 4.18958 -1.96364 2.28911 -4.23906 0.695842 -3.77475 2.66559 " /> 
<polyline points="-5.48163 5.10326 -3.77475 2.66559 -4.23906 0.695842 -6.02352 3.24432 -5.48163 5.10326 " /> 
 <polyline points="-3.30514 6.62725 -1.59826 4.18958 -1.96364 2.28911 -3.7481 4.83758 -3.30514 6.62725 " /> 
<polyline points="-5.48163 5.10326 -3.30514 6.62725 -3.7481 4.83758 -6.02352 3.24432 -5.48163 5.10326 " /> 
<polyline points="-6.02352 3.24432 -3.7481 4.83758 -1.96364 2.28911 -4.23906 0.695842 -6.02352 3.24432 "  /> </g> </defs>
<use xlink:href="#lower left gold element" transform="translate(31,31)  " /> 
<defs>
 <g id="lower middle gold element" style="stroke:black; stroke-width:0.1; fill:gold;"  >
<polyline points="-1.42414 4.3115 1.01353 6.01838 0.973916 5.72654 -1.48155 4.00721 -1.42414 4.3115 " /> 
<polyline points="-3.13102 6.74917 -1.42414 4.3115 -1.48155 4.00721 -3.20088 6.46267 -3.13102 6.74917 " /> 
 <polyline points="-0.693349 8.45605 1.01353 6.01838 0.973916 5.72654 -0.745418 8.182 -0.693349 8.45605 " /> 
<polyline points="-3.13102 6.74917 -0.693349 8.45605 -0.745418 8.182 -3.20088 6.46267 -3.13102 6.74917 " /> 
<polyline points="-3.20088 6.46267 -0.745418 8.182 0.973916 5.72654 -1.48155 4.00721 -3.20088 6.46267 "  /> </g> </defs>
<use xlink:href="#lower middle gold element" transform="translate(31,31)  " /> 
<defs>
 <g id="lower right gold element" style="stroke:black; stroke-width:0.1; fill:gold;"  >
<polyline points="1.18764 6.1403 3.62531 7.84717 3.56277 6.99933 1.07093 5.25453 1.18764 6.1403 " /> 
<polyline points="-0.51923 8.57797 1.18764 6.1403 1.07093 5.25453 -0.67388 7.74637 -0.51923 8.57797 " /> 
 <polyline points="1.91844 10.2848 3.62531 7.84717 3.56277 6.99933 1.81796 9.49117 1.91844 10.2848 " /> 
<polyline points="-0.51923 8.57797 1.91844 10.2848 1.81796 9.49117 -0.67388 7.74637 -0.51923 8.57797 " /> 
<polyline points="-0.67388 7.74637 1.81796 9.49117 3.56277 6.99933 1.07093 5.25453 -0.67388 7.74637 "  /> </g> </defs>
<use xlink:href="#lower right gold element" transform="translate(31,31)  " /> 
</svg>
